<?xml version="1.0" standalone="no"?><!DOCTYPE svg PUBLIC "-//W3C//DTD SVG 1.1//EN" "http://www.w3.org/Graphics/SVG/1.1/DTD/svg11.dtd"><svg t="1763896477184" class="icon" viewBox="0 0 1024 1024" version="1.1" xmlns="http://www.w3.org/2000/svg" p-id="6603" xmlns:xlink="http://www.w3.org/1999/xlink" width="200" height="200"><path d="M560.820168 639.361a23.955798 23.955798 0 0 0-23.955798-23.751048H178.551153a23.751047 23.751047 0 1 0 0 47.706845h358.313217a23.955798 23.955798 0 0 0 23.955798-23.955797zM597.06099 851.482424a184.275369 184.275369 0 0 1-6.961514 24.774799 122.850246 122.850246 0 0 1-7.166264-18.222786c-5.528261-16.789534-15.765782-47.706845-47.092594-46.683093s-35.626571 30.712561-37.469325 50.3686c-4.709259-15.356281-16.175282-29.89356-53.030356-35.01232a20.475041 20.475041 0 0 0-23.751048 17.813286 20.475041 20.475041 0 0 0 3.890258 15.356281 20.475041 20.475041 0 0 0 13.923028 8.190016c18.427537 2.661755 18.837038 4.504509 20.475041 10.647021a45.24984 45.24984 0 0 0 30.917312 39.312079 33.374317 33.374317 0 0 0 31.122062-1.433253 54.258859 54.258859 0 0 0 18.427537-46.068842v-6.961514l2.661755 7.780515c6.142512 18.427537 16.175282 48.730597 47.502095 48.730598h3.276007c31.122062-2.047504 38.902578-36.445573 44.226088-59.172868 1.023752-4.709259 3.071256-13.718277 5.11876-19.246539a16.175282 16.175282 0 0 1 8.394767 8.190016 90.294931 90.294931 0 0 1 2.457005 57.739616 20.475041 20.475041 0 0 0-1.842754 25.1843 20.475041 20.475041 0 0 0 29.074558 6.142513c19.246538-12.285025 22.113044-62.653625 14.53728-90.704432A60.19662 60.19662 0 0 0 640.672827 798.656818c-31.122062-1.433253-38.288327 29.484059-43.611837 52.825606z" fill="#DABD85" p-id="6604"></path><path d="M843.989984 640.999003a18.427537 18.427537 0 0 0-25.593801 16.789533v299.95935a36.036072 36.036072 0 0 1-38.493077 32.760066H121.83529a36.036072 36.036072 0 0 1-38.493077-32.760066V66.264604a36.036072 36.036072 0 0 1 38.493077-32.760066H779.903106a36.036072 36.036072 0 0 1 38.493077 32.760066v372.645745a18.018036 18.018036 0 0 0 11.466023 16.994284 18.427537 18.427537 0 0 0 25.389051-16.994284V66.264604A71.253142 71.253142 0 0 0 779.903106 0.130221H121.83529A71.048392 71.048392 0 0 0 46.89664 66.264604v891.483282A71.048392 71.048392 0 0 0 121.83529 1023.882269h658.477317a71.048392 71.048392 0 0 0 74.93865-66.134383V657.788536a18.018036 18.018036 0 0 0-11.261273-16.789533z" fill="#DABD85" p-id="6605"></path><path d="M750.828548 507.092235a23.955798 23.955798 0 0 0-23.955798-23.751047H178.551153a23.751047 23.751047 0 1 0 0 47.706845h548.321597a23.955798 23.955798 0 0 0 23.955798-23.955798zM726.87275 351.072423H178.551153a23.751047 23.751047 0 1 0 0 47.502095h548.321597a23.751047 23.751047 0 1 0 0-47.502095zM629.206804 139.3605a23.751047 23.751047 0 1 0 0-47.706846h-358.313216a23.751047 23.751047 0 1 0 0 47.706846zM971.754239 456.314134L927.323401 412.497546a16.584783 16.584783 0 0 0-23.136797-1.433253L605.660507 702.833626l-34.398068 83.128667a14.94678 14.94678 0 0 0 7.780515 20.475041 15.15153 15.15153 0 0 0 6.142512 1.228502 14.742029 14.742029 0 0 0 5.733012-1.228502 765.357031 765.357031 0 0 0 84.152418-35.217071l296.683343-290.950332a16.175282 16.175282 0 0 0 5.118761-11.466023 16.789534 16.789534 0 0 0-5.118761-12.489774z m-64.701129-40.950082zM726.87275 223.922419H178.551153a23.751047 23.751047 0 1 0 0 47.502095h548.321597a23.751047 23.751047 0 1 0 0-47.502095z" fill="#DABD85" p-id="6606"></path></svg>