<?xml version="1.0" standalone="no"?><!DOCTYPE svg PUBLIC "-//W3C//DTD SVG 1.1//EN" "http://www.w3.org/Graphics/SVG/1.1/DTD/svg11.dtd"><svg t="1763896216706" class="icon" viewBox="0 0 2520 1024" version="1.1" xmlns="http://www.w3.org/2000/svg" p-id="5696" xmlns:xlink="http://www.w3.org/1999/xlink" width="492.1875" height="200"><path d="M1225.176615 962.284308c-22.685538 0-37.809231-17.408-37.80923-44.740923s15.123692-44.701538 40.329846-44.701539c22.646154 0 37.809231 14.887385 37.809231 44.701539s-15.163077 44.740923-40.329847 44.740923m95.704616-27.332923v-72.073847c0-59.628308-27.687385-84.48-103.266462-84.48-30.247385 0-47.852308 2.481231-55.414154 7.483077-5.041231 4.962462-10.082462 14.887385-17.644307 27.293539a251.707077 251.707077 0 0 1 60.455384-7.443692c42.811077 0 60.455385 14.926769 60.455385 47.222153v12.406154a72.585846 72.585846 0 0 0-55.414154-24.812307c-50.412308 0-83.101538 29.774769-83.101538 74.515692s32.689231 77.036308 78.060307 77.036308c27.726769 0 47.852308-9.924923 63.015385-27.332924 0 0 2.481231 12.406154 17.604923 19.889231h2.520615s2.520615 0 2.520616 2.481231h2.520615c2.520615 0 7.561846 2.481231 12.603077 2.481231 37.809231 0 40.290462-29.814154 40.290462-29.814154-22.685538 2.481231-25.206154-4.962462-25.206154-24.851692m-597.070769 29.814153c-27.687385 0-40.290462-24.851692-40.290462-77.036307s12.603077-77.036308 40.329846-77.036308c27.687385 0 42.811077 24.851692 42.811077 77.036308-2.520615 52.184615-15.123692 77.036308-42.811077 77.036307m0-183.886769c-65.496615 0-105.826462 39.778462-105.826461 106.850462 0 67.111385 40.329846 106.850462 105.826461 106.850461 65.496615 0 105.787077-39.778462 105.787077-106.850461s-40.290462-106.850462-105.787077-106.850462m254.424616 181.405539c-27.687385 0-45.331692-22.370462-45.331693-67.111385v-22.331077c0-42.259692 17.644308-64.590769 45.331693-64.590769 30.247385 0 45.371077 27.293538 45.371076 79.478154 0 49.703385-15.123692 74.555077-45.371076 74.555077m17.644307-181.405539c-25.206154 0-45.331692 7.483077-57.934769 22.370462V733.696c0-5.001846-2.520615-7.483077-5.041231-12.445538v-2.481231s0-2.481231-2.520615-2.481231l-2.520616-2.481231h-2.520615c-2.520615-2.481231-7.561846-4.962462-10.082461-7.483077a50.884923 50.884923 0 0 0-22.685539-4.962461c-25.206154 0-32.728615 14.926769-32.728615 14.926769-7.561846 7.483077-10.082462 14.887385-10.082462 19.889231 20.164923 0 25.206154 7.443692 25.206154 29.814154v171.44123c0 12.406154 0 27.332923-22.685538 24.812308v2.520615c2.520615 7.483077 7.561846 22.370462 27.726769 24.812308h10.082461c32.728615 0 40.290462-24.812308 40.290462-24.812308 15.123692 17.408 37.809231 27.332923 63.015384 27.332924 55.374769 0 93.184-39.778462 93.184-109.331693 2.520615-62.109538-32.768-101.888-90.702769-101.888m478.641231 183.886769c-27.687385 0-40.290462-24.851692-40.290462-77.036307s12.603077-77.036308 40.290462-77.036308c27.726769 0 40.329846 24.851692 40.329846 77.036308s-12.603077 77.036308-40.329846 77.036307m0-183.886769c-65.496615 0-105.787077 39.778462-105.787077 106.850462 0 67.111385 40.290462 106.850462 105.787077 106.850461s105.826462-39.778462 105.826462-106.850461-40.329846-106.850462-105.826462-106.850462m339.377231 27.569231c12.603077 0 25.206154 5.001846 32.728615 14.966154 5.041231 4.923077 10.082462 9.885538 17.644308 9.885538 15.123692 2.520615 27.726769-7.443692 27.726769-32.295384 0 0-35.288615-22.370462-80.620308-22.370462-63.015385 2.520615-110.828308 44.740923-110.828307 111.852308 0 64.590769 45.292308 106.811077 110.828307 106.811077 32.768 0 60.455385-12.406154 80.620308-32.295385-7.561846-9.924923-12.603077-12.406154-22.685538-12.406154-10.082462 0-27.687385 9.924923-47.852308 9.924923-35.288615 0-57.934769-29.814154-57.934769-79.517538 0-47.182769 22.646154-74.515692 50.372923-74.515692m214.843077 156.278153c-27.687385 0-40.290462-24.851692-40.290462-77.036307s12.603077-77.036308 40.290462-77.036308c27.726769 0 42.850462 24.851692 42.850461 77.036308s-15.123692 77.036308-42.850461 77.036307m0-183.886769c-65.496615 0-105.787077 39.778462-105.787077 106.850462 0 67.111385 40.290462 106.850462 105.787077 106.850461 65.536 0 105.826462-39.778462 105.826461-106.850461s-40.290462-106.850462-105.826461-106.850462m-387.938462 154.072616c-17.644308 0-30.247385 12.406154-30.247384 29.814153s12.603077 29.814154 30.247384 29.814154 30.247385-12.406154 30.247385-29.814154a30.404923 30.404923 0 0 0-30.247385-29.814153m-1234.432-206.257231c-15.084308 5.001846-47.852308 5.001846-93.184 5.001846-55.453538 0-93.223385-2.520615-110.867692-2.520615-30.208 0-42.811077 7.483077-55.414154 39.778461 17.644308-4.962462 40.290462-7.483077 68.017231-7.483077 20.164923 0 25.206154 2.520615 25.206154 17.408v168.96c0 17.408 7.561846 29.814154 22.646153 34.816 2.520615 2.481231 5.041231 2.481231 7.561847 2.481231 5.041231 0 7.561846 2.481231 12.603077 2.481231 42.811077 0 50.412308-29.814154 50.412307-29.814154-20.164923 0-25.206154-7.483077-25.206154-29.814154v-151.591385c0-14.887385 5.041231-17.368615 27.687385-17.368615h15.123692c35.288615 4.962462 42.811077-2.520615 55.414154-32.295385m2090.929231 206.217847v-79.556923c0-52.145231-22.646154-74.515692-73.019077-74.515693-25.206154 0-47.852308 9.964308-63.015385 27.332923-12.563692-19.849846-32.689231-27.332923-60.416-27.332923-25.206154 0-47.891692 7.483077-60.455384 24.851693 0 0-5.041231-19.889231-40.329846-19.889231-10.082462 0-17.644308 2.520615-22.685539 5.001846a29.932308 29.932308 0 0 0-10.043077 9.924923l-7.561846 14.887385c20.125538 0 25.206154 7.483077 25.206154 29.853538v149.070769h57.895385v-134.183384c0-32.295385 10.082462-47.222154 37.80923-47.222154 22.685538 0 32.728615 12.445538 32.728616 39.778461v141.627077h57.974154v-134.183384c0-32.295385 10.082462-47.222154 37.80923-47.222154 22.646154 0 32.689231 12.445538 32.689231 39.778461v124.219077c0 2.481231 2.56 5.001846 5.080615 5.001846V984.615385l2.520616 2.48123h7.522461c5.041231 2.481231 12.603077 4.962462 22.685539 4.962462 37.809231 0 40.329846-29.814154 40.329846-29.814154-20.164923 0-22.685538-9.964308-22.685538-27.332923m-2020.43077 27.332923c-22.646154 0-37.809231-17.408-37.80923-44.740923s15.163077-44.701538 40.329846-44.701538c22.685538 0 37.809231 14.887385 37.80923 44.701538-2.520615 29.814154-17.644308 44.740923-40.329846 44.740923m95.744-27.332923v-72.073846c0-59.628308-27.726769-84.48-103.305846-84.48-30.208 0-47.852308 2.481231-55.414154 7.483077-5.041231 4.962462-10.082462 14.887385-17.644307 27.293538a251.707077 251.707077 0 0 1 60.494769-7.443692c42.811077 0 60.455385 14.926769 60.455384 47.222154v12.406154a72.585846 72.585846 0 0 0-55.414153-24.812308c-50.412308 0-83.140923 29.774769-83.140923 74.515692s32.728615 77.036308 78.099692 77.036308c27.687385 0 47.852308-9.924923 62.976-27.332923 0 0 2.520615 12.406154 17.604923 19.889231h2.520615s2.520615 0 2.520616 2.48123h2.520615c2.520615 0 7.561846 2.481231 12.603077 2.481231 37.809231 0 40.329846-29.814154 40.329846-29.814154-25.206154 2.481231-25.206154-4.962462-25.206154-24.851692M172.150154 172.740923L126.779077 239.812923l80.620308 49.703385s55.414154 27.332923 27.726769 79.556923c-25.206154 49.624615-143.596308 156.514462-143.596308 156.514461l105.787077 64.59077c73.058462-159.035077 68.017231-136.664615 88.182154-193.811693 22.685538-57.147077 25.206154-101.888-5.041231-134.183384-42.811077-39.778462-47.852308-44.701538-108.307692-89.442462" fill="#EC5128" p-id="5697"></path><path d="M444.928 87.552c17.644308-29.814154 25.206154-47.261538 25.206154-47.261538L371.869538 12.996923S331.618462 139.697231 261.041231 199.364923c0 0 68.017231 39.778462 68.017231 37.257846 20.164923-17.408 37.809231-37.257846 52.893538-57.147077 15.123692-7.483077 30.247385-12.445538 45.371077-19.88923-17.644308 32.295385-47.891692 81.998769-78.099692 111.852307l40.290461 34.776616s27.726769-27.332923 57.934769-59.667693h35.288616v62.148923h-133.513846v47.18277h138.555077v114.294153h-5.041231c-15.123692 0-37.809231-2.481231-47.891693-17.368615-10.043077-17.408-2.481231-49.703385-2.48123-69.592615H336.620308l-2.520616 2.48123s-35.288615 154.072615 100.745846 149.110154c125.991385 2.481231 199.049846-34.776615 234.338462-62.109538l12.563692 49.664 78.099693-32.295385-52.893539-126.700307-63.015384 19.849846 12.603076 44.740923c-15.084308 12.406154-35.249231 19.889231-55.414153 27.332923V355.879385h133.513846V308.696615h-133.513846V249.028923h133.513846V199.364923h-239.300923c17.604923-19.889231 30.208-39.778462 35.24923-52.184615l-42.811076-9.964308c178.845538-62.109538 279.630769-52.184615 277.110153 52.184615v273.329231s10.082462 94.444308-98.264615 86.961231l-57.934769-12.406154-12.603077 54.665846s254.424615 72.073846 274.589538-121.777231c20.164923-193.772308-5.041231-315.549538-5.04123-315.549538s-25.206154-178.884923-420.706462-67.072m649.255385 72.152615c93.184-22.370462 408.103385-69.592615 466.038153-42.259692 68.017231 34.776615-22.685538 84.48-22.685538 84.48H1094.183385V159.704615z m483.643077 94.404923v-12.406153l30.247384 29.814153s98.264615-59.628308 95.744-126.739692c-2.520615-64.590769-68.017231-79.517538-166.281846-84.48-30.208-2.481231-85.622154 2.481231-148.637538 7.483077V23.000615h-123.431385v54.665847c-70.498462 7.443692-136.034462 14.887385-168.763077 19.849846V75.224615H985.796923v191.330462h110.867692v-12.445539h168.763077V316.258462h-193.96923v49.703384h193.96923v146.628923h-282.151384v64.590769H1683.692308v-64.590769h-294.754462V365.883077h216.654769V316.258462h-216.615384V254.109538h188.928z m707.938461-136.664615c-10.082462 52.184615-27.726769 94.444308-45.331692 131.702154-30.247385-19.889231-55.453538-34.776615-70.537846-44.740923 7.522462-12.406154 10.043077-22.331077 12.603077-32.295385l-93.223385-44.701538s-20.164923 49.664-52.932923 106.811077c-40.290462-29.814154-73.058462-52.145231-73.058462-52.145231l-35.24923 42.220308c20.164923 12.445538 45.331692 39.778462 68.01723 67.072-22.685538 29.853538-47.852308 57.186462-75.579077 72.073846v-193.772308c105.826462-47.261538 267.027692-91.963077 365.292308-96.925538 57.934769-2.520615 83.101538 17.368615 93.223385 37.257846 5.001846 9.924923 7.522462 27.332923 7.522461 34.776615v32.295385l-100.745846-59.628308z m219.175385 54.665846c-2.520615-37.257846-22.685538-129.181538-199.010462-146.589538-146.116923-12.445538-327.522462 52.184615-382.936615 74.555077V55.335385h-123.431385V574.621538h123.431385V390.774154l32.768 29.814154s40.290462-32.295385 85.622154-72.073846c22.685538 32.295385 37.809231 59.667692 37.80923 59.667692l68.017231-67.111385c-7.561846-17.368615-22.685538-34.776615-42.850461-52.184615 12.603077-12.406154 25.206154-24.812308 35.288615-37.257846a399.753846 399.753846 0 0 1 65.496615 64.590769c-70.537846 96.886154-151.158154 131.702154-151.158153 131.702154l40.329846 52.184615c57.895385-29.814154 113.348923-77.036308 158.72-126.739692 27.687385 34.816 45.292308 64.590769 45.292307 64.590769l85.661539-72.034461c-10.043077-17.368615-37.769846-39.778462-68.017231-64.59077A1203.633231 1203.633231 0 0 0 2389.070769 196.923077c2.520615 74.555077 2.520615 213.700923-2.520615 278.291692-7.522462 96.886154-108.307692 34.776615-108.307692 34.776616l-5.041231 52.184615s45.331692 29.814154 118.390154 39.778462c125.991385 19.849846 113.388308-119.296 115.908923-191.330462 0-77.036308 2.520615-161.516308-2.520616-238.552615z m-2274.855385-24.812307c37.809231 0 70.498462-27.372308 70.498462-62.148924 0-34.776615-30.208-62.109538-70.498462-62.109538-37.809231 0-70.537846 27.332923-70.537846 62.109538s30.208 62.109538 70.498461 62.109539" fill="#EC5128" p-id="5698"></path><path d="M1522.451692 500.105846c37.809231 0 70.498462-27.332923 70.498462-62.109538s-30.208-62.109538-70.498462-62.109539c-37.809231 0-70.537846 27.332923-70.537846 62.109539s32.728615 62.109538 70.498462 62.109538" fill="#EC5128" p-id="5699"></path></svg>